<?xml version="1.0" encoding="UTF-8"?>
<svg width="31px" height="17px" viewBox="0 0 31 17" version="1.1" xmlns="http://www.w3.org/2000/svg" xmlns:xlink="http://www.w3.org/1999/xlink">
    <title>Group 9</title>
    <defs>
        <polygon id="path-1" points="0 0 11.371039 0 11.371039 17 0 17"></polygon>
        <polygon id="path-3" points="0 0 8.23743089 0 8.23743089 8.95655395 0 8.95655395"></polygon>
    </defs>
    <g id="Page-1" stroke="none" stroke-width="1" fill="none" fill-rule="evenodd">
        <g id="Mobile" transform="translate(-42.000000, -40.000000)">
            <g id="Group-9" transform="translate(42.000000, 40.000000)">
                <g id="Group-3" transform="translate(9.869586, 0.000000)">
                    <mask id="mask-2" fill="white">
                        <use xlink:href="#path-1"></use>
                    </mask>
                    <g id="Clip-2"></g>
                    <path d="M5.60054081,14.0823373 C5.67797225,14.0774586 5.80011409,14.0725799 5.92175638,14.0620521 C6.92112146,13.9770594 7.71466879,13.3274174 8.00790913,12.3452512 C8.19274546,11.7253952 8.20173749,11.0973224 8.03738303,10.4720742 C7.82507103,9.66425852 7.34699435,9.09190598 6.57517779,8.8007226 C6.10234647,8.62252042 5.61078174,8.58785573 5.11497078,8.66000964 C4.32042433,8.7755586 3.68873369,9.15738373 3.30457385,9.9020326 C2.94064611,10.6079084 2.89693481,11.3589766 3.05804215,12.128276 C3.1624497,12.6269339 3.38475286,13.0644793 3.75167795,13.4144643 C4.25997786,13.8992564 4.87818045,14.0759179 5.60054081,14.0823373 L5.60054081,14.0823373 Z M5.98470064,17.000077 C5.71968531,16.9482084 5.44892506,16.9171386 5.19065376,16.8408762 C4.33191416,16.5879524 3.60680623,16.1211346 3.06428662,15.3785399 C3.04655233,15.354403 3.0363114,15.3243603 3.02257356,15.2971421 C3.00858595,15.3056157 2.99459833,15.3140893 2.98061072,15.3225629 C2.97811293,15.3695528 2.97361691,15.4165427 2.97336713,15.4635326 C2.97286757,15.8456145 2.97061956,16.2276964 2.97461603,16.6097783 C2.97536536,16.7029878 2.94714035,16.7338009 2.85497197,16.7335441 C1.94078147,16.7307196 1.02684075,16.7317467 0.112900029,16.7314899 C0.0829265699,16.7312331 0.052703332,16.7255841 0.0039964612,16.7204485 L0.0039964612,16.5353134 C0.0039964612,11.0865379 0.0039964612,5.63750553 0.00374668237,0.188473198 C0.00374668237,0.125819982 0.00124889412,0.0629099911 0,0 L3.22864109,0 C3.2308891,0.0626532157 3.23513534,0.125563207 3.23513534,0.188216422 C3.23538512,2.43602892 3.23538512,4.68384142 3.23538512,6.93165392 L3.23538512,7.14400724 C3.27934619,7.10754512 3.30132673,7.09573345 3.31506456,7.07724561 C3.82960894,6.39396608 4.52424386,6.01856034 5.3317788,5.84754787 C6.31241046,5.63981651 7.28554876,5.64110039 8.23171095,6.02446617 C9.30800791,6.46047093 10.0800743,7.24646065 10.6228436,8.28023871 C11.1506263,9.28602824 11.3814219,10.3698775 11.3706814,11.5068793 C11.3584423,12.7658495 11.069698,13.9447057 10.3350984,14.9756592 C9.55154226,16.0754286 8.48348801,16.6983659 7.18438834,16.9171386 C6.96957855,16.9533439 6.75202119,16.9728588 6.53596251,17.000077 L5.98470064,17.000077 Z" id="Fill-1" fill="#E1DFFE" mask="url(#mask-2)"></path>
                </g>
                <g id="Group-6" transform="translate(0.000000, 6.903558)">
                    <mask id="mask-4" fill="white">
                        <use xlink:href="#path-3"></use>
                    </mask>
                    <g id="Clip-5"></g>
                    <path d="M4.08660638,2.47958296 C4.00817582,2.4844617 3.9294955,2.48779978 3.85131472,2.49524627 C3.79486471,2.50038178 3.73841469,2.50911214 3.68271402,2.51938316 C3.05951585,2.63570245 2.5799405,2.95384726 2.30818114,3.55958061 C2.15256893,3.9062275 2.10635985,4.2747003 2.13458486,4.65087637 C2.19203399,5.41966214 2.52274115,6.00767798 3.24010594,6.30553753 C3.80510564,6.53997353 4.38509207,6.53971676 4.95583669,6.32274148 C5.48386912,6.12219984 5.84779687,5.73960438 6.00141085,5.18111772 C6.0715987,4.9258829 6.10906552,4.65061959 6.10257127,4.38588408 C6.08633565,3.71544332 5.84055328,3.15259148 5.26506287,2.7869432 C4.90563114,2.55892658 4.50573524,2.47675843 4.08660638,2.47958296 M-2.49778825e-05,4.18688309 C0.0446854318,3.88594223 0.0741593331,3.5816633 0.137103597,3.28508762 C0.309950544,2.47239325 0.673128955,1.75701678 1.24687092,1.16874417 C1.89454741,0.504722792 2.68534717,0.130600926 3.59429231,0.0312288174 C4.71579924,-0.0909963082 5.75263114,0.137020313 6.65283402,0.866519434 C7.48734508,1.54286603 7.95717905,2.4467157 8.14426339,3.50873906 C8.32685171,4.54457132 8.25241762,5.56191575 7.81980069,6.52559411 C7.15139256,8.01489186 6.00865443,8.81911264 4.4165642,8.94287842 C3.70219676,8.9985987 3.0140561,8.88536071 2.36013514,8.57902757 C1.55110152,8.20002697 0.951882124,7.59275298 0.536749717,6.79032962 C0.229022205,6.1948673 0.0659166319,5.55626669 0.0189582128,4.8850556 C0.0167102034,4.84987736 0.00646927156,4.81546945 -2.49778825e-05,4.78054798 C-2.49778825e-05,4.58257409 -2.49778825e-05,4.38485698 -2.49778825e-05,4.18688309" id="Fill-4" fill="#E1DFFE" mask="url(#mask-4)"></path>
                </g>
                <path d="M27.3584745,10.3834866 C27.3637199,10.3834866 27.369215,10.3834866 27.3744604,10.3834866 C27.3744604,10.6035432 27.3679661,10.8238566 27.3764586,11.0436564 C27.3832026,11.2090198 27.404184,11.3743832 27.4276632,11.5384627 C27.4803666,11.9053949 27.564542,12.2638534 27.7758549,12.5727543 C28.1720041,13.1520398 28.9063539,13.0968331 29.2068378,12.4641383 C29.4248947,12.0050237 29.3846803,11.528962 29.2520478,11.0575222 C29.1179166,10.5801766 28.8641413,10.1937295 28.4000522,9.9931879 C28.0880785,9.858124 27.756622,9.8873964 27.4296615,9.89381579 C27.4051832,9.89407256 27.3639696,9.95672578 27.3617216,9.99241757 C27.3534789,10.122346 27.3584745,10.2530447 27.3584745,10.3834866 L27.3584745,10.3834866 Z M31,12.7365771 C30.9363064,13.0472754 30.9045845,13.3695286 30.8036738,13.6668746 C30.4802103,14.6184845 29.856013,15.2301237 28.8494043,15.3356584 C27.82656,15.4429906 26.9758134,15.0606519 26.4592707,14.0743773 C26.1627833,13.5081874 26.0009266,12.8960346 25.9434775,12.2630831 C25.8782852,11.5489905 25.8600513,10.8302759 25.8223347,10.1136156 C25.8188378,10.0471107 25.822085,9.98009235 25.822085,9.89972163 C25.449415,9.89099126 25.1396892,10.0139867 24.8859139,10.2684512 C24.4712811,10.6841707 24.3616282,11.2059385 24.4238231,11.7780342 C24.4910136,12.3960928 24.7585267,12.9140089 25.1811525,13.3523246 C25.2243642,13.3970036 25.2673262,13.4416825 25.3100384,13.486875 C25.3160331,13.4930376 25.3200295,13.5015112 25.3350163,13.5235939 C24.9043976,13.9562606 24.4717806,14.3907247 24.0179325,14.8467579 C23.8907951,14.6811377 23.7611599,14.5311808 23.6520065,14.3671013 C23.086757,13.5171745 22.8162466,12.5691595 22.7767815,11.5453956 C22.7520534,10.9001189 22.7912687,10.2615183 22.980601,9.64114872 C23.2758396,8.67438906 23.9287615,8.09767135 24.8624347,7.83165196 C25.4693973,7.65884206 26.0918461,7.61082505 26.7177918,7.60902762 C28.0301298,7.60491921 29.3422179,7.60774374 30.6545559,7.60774374 C30.6932716,7.60774374 30.7322371,7.60774374 30.7861893,7.60774374 C30.7901858,7.66397757 30.7964303,7.71122426 30.7964303,7.75821417 C30.7969298,8.41478906 30.794432,9.07136395 30.7991778,9.72793883 C30.7999272,9.8475962 30.7717022,9.89509967 30.6470625,9.88996416 C30.4200136,9.88046346 30.1922153,9.88688285 29.9646668,9.88765318 C29.9182079,9.88790995 29.8719988,9.89304546 29.7905709,9.89818097 C29.8999741,9.98471431 29.9841495,10.0460836 30.0625801,10.1143859 C30.5746267,10.5601481 30.8313993,11.1468801 30.9430504,11.8121854 C30.9660301,11.9487899 30.9812666,12.0866783 31,12.2237964 L31,12.7365771 Z" id="Fill-7" fill="#E1DFFE"></path>
            </g>
        </g>
    </g>
</svg>